<svg xmlns="http://www.w3.org/2000/svg" width="190" height="50" viewBox="0 0 190 50">
  <g id="app_store" transform="translate(8151 97)">
    <rect id="Rectangle_3134" data-name="Rectangle 3134" width="190" height="50" rx="25" transform="translate(-8151 -97)"/>
    <g id="Group_5846" data-name="Group 5846" transform="translate(5)">
      <path id="Path_9121" data-name="Path 9121" d="M.563,0H3.039l.836-2.734H7.852L8.688,0h2.484L7.25-11.273H4.477ZM5.8-9.023h.141L7.313-4.5h-2.9ZM12.859,2.852h2.281V-1.375h.141A2.73,2.73,0,0,0,17.859.133c2.18,0,3.492-1.664,3.492-4.43v-.016c0-2.742-1.344-4.43-3.492-4.43a2.7,2.7,0,0,0-2.578,1.469h-.141V-8.6H12.859Zm4.219-4.609c-1.2,0-1.961-.961-1.961-2.539v-.016c0-1.578.758-2.539,1.961-2.539s1.953.961,1.953,2.539V-4.3C19.031-2.719,18.281-1.758,17.078-1.758Zm6.133,4.609h2.281V-1.375h.141A2.73,2.73,0,0,0,28.211.133c2.18,0,3.492-1.664,3.492-4.43v-.016c0-2.742-1.344-4.43-3.492-4.43a2.7,2.7,0,0,0-2.578,1.469h-.141V-8.6H23.211ZM27.43-1.758c-1.2,0-1.961-.961-1.961-2.539v-.016c0-1.578.758-2.539,1.961-2.539s1.953.961,1.953,2.539V-4.3C29.383-2.719,28.633-1.758,27.43-1.758ZM41.945.289c2.813,0,4.547-1.414,4.547-3.648v-.008c0-1.758-1.039-2.711-3.422-3.2l-1.2-.242C40.547-7.086,40-7.523,40-8.258v-.008c0-.844.773-1.375,1.938-1.383,1.188,0,1.969.563,2.1,1.367l.016.094h2.219l-.008-.1c-.148-1.883-1.7-3.273-4.328-3.273-2.5,0-4.3,1.383-4.3,3.477v.008c0,1.711,1.008,2.8,3.352,3.281l1.188.242c1.4.289,1.953.7,1.953,1.445V-3.1c0,.867-.867,1.469-2.125,1.469-1.32,0-2.234-.57-2.32-1.414l-.008-.078H37.406L37.414-3C37.547-1,39.25.289,41.945.289ZM52.063.031A6.348,6.348,0,0,0,53.2-.07v-1.7a5.371,5.371,0,0,1-.672.039c-.773,0-1.1-.344-1.1-1.117V-6.883H53.2V-8.6H51.43v-2.055h-2.3V-8.6H47.8v1.719h1.328V-2.32C49.125-.648,49.969.031,52.063.031Zm6.8.148C61.508.18,63.1-1.492,63.1-4.3v-.016c0-2.781-1.617-4.477-4.242-4.477s-4.242,1.7-4.242,4.477V-4.3C54.617-1.5,56.211.18,58.859.18Zm0-1.789c-1.219,0-1.906-.992-1.906-2.687v-.016c0-1.68.7-2.687,1.906-2.687s1.906,1.008,1.906,2.688V-4.3C60.766-2.6,60.07-1.609,58.859-1.609ZM64.953,0h2.281V-4.812a1.9,1.9,0,0,1,2.117-1.961,4.744,4.744,0,0,1,1.047.133V-8.633a3.416,3.416,0,0,0-.852-.109,2.079,2.079,0,0,0-2.172,1.477h-.141V-8.6H64.953ZM75.5.18c2.516,0,3.625-1.453,3.891-2.531l.016-.078H77.281l-.023.047a1.856,1.856,0,0,1-1.711.859c-1.211,0-1.969-.82-1.992-2.234h5.922v-.711c0-2.6-1.562-4.32-4.07-4.32S71.3-7.031,71.3-4.3v.008C71.3-1.531,72.883.18,75.5.18Zm-.055-7.258c.992,0,1.7.641,1.844,1.891H73.578A1.877,1.877,0,0,1,75.445-7.078Z" transform="translate(-8091 -59)" fill="#fff"/>
      <path id="Path_9122" data-name="Path 9122" d="M1.174,0H4.189c2.8,0,4.348-1.733,4.348-4.577v-.013c0-2.837-1.555-4.57-4.348-4.57H1.174Zm.87-.787V-8.373H4.139c2.234,0,3.51,1.428,3.51,3.79v.013c0,2.361-1.27,3.783-3.51,3.783Zm11.134.9c1.911,0,3.11-1.352,3.11-3.529v-.013c0-2.177-1.2-3.523-3.11-3.523s-3.1,1.346-3.1,3.523v.013C10.074-1.238,11.267.114,13.178.114Zm0-.749c-1.409,0-2.247-1.054-2.247-2.78v-.013c0-1.727.838-2.774,2.247-2.774s2.247,1.047,2.247,2.774v.013C15.425-1.688,14.587-.635,13.178-.635ZM19.138,0h.876L21.7-5.675h.083L23.461,0h.882l1.949-6.836h-.838l-1.53,5.8h-.076l-1.688-5.8h-.832l-1.688,5.8h-.076l-1.517-5.8H17.2ZM27.79,0h.838V-4.062A1.971,1.971,0,0,1,30.653-6.2c1.187,0,1.777.667,1.777,1.968V0h.838V-4.443a2.231,2.231,0,0,0-2.393-2.507A2.192,2.192,0,0,0,28.71-5.637h-.083v-1.2H27.79Zm7.63,0h.838V-9.56H35.42Zm5.808.114c1.911,0,3.11-1.352,3.11-3.529v-.013c0-2.177-1.2-3.523-3.11-3.523s-3.1,1.346-3.1,3.523v.013C38.124-1.238,39.317.114,41.228.114Zm0-.749c-1.409,0-2.247-1.054-2.247-2.78v-.013c0-1.727.838-2.774,2.247-2.774s2.247,1.047,2.247,2.774v.013C43.475-1.688,42.637-.635,41.228-.635ZM48.02.114a2.393,2.393,0,0,0,2.234-1.289h.076V0h.844V-4.672c0-1.441-.933-2.279-2.533-2.279a2.393,2.393,0,0,0-2.628,1.79l-.006.025h.844l.006-.013c.178-.679.832-1.054,1.758-1.054,1.1,0,1.714.533,1.714,1.536v.641l-2.133.14c-1.581.108-2.463.8-2.463,1.987v.013A2.053,2.053,0,0,0,48.02.114ZM46.592-1.9v-.013c0-.774.559-1.212,1.72-1.289l2.019-.14v.793A2.01,2.01,0,0,1,48.179-.622C47.258-.622,46.592-1.117,46.592-1.9ZM55.821.114a2.418,2.418,0,0,0,2.3-1.479H58.2V0h.844V-9.56H58.2V-5.5h-.076a2.449,2.449,0,0,0-2.3-1.447c-1.733,0-2.888,1.409-2.888,3.529v.013C52.933-1.3,54.095.114,55.821.114ZM56-.635c-1.352,0-2.209-1.085-2.209-2.78v-.013C53.79-5.116,54.647-6.2,56-6.2s2.215,1.092,2.215,2.774v.013C58.214-1.727,57.345-.635,56-.635ZM67.514.114c1.911,0,3.11-1.352,3.11-3.529v-.013c0-2.177-1.2-3.523-3.11-3.523s-3.1,1.346-3.1,3.523v.013C64.41-1.238,65.6.114,67.514.114Zm0-.749c-1.409,0-2.247-1.054-2.247-2.78v-.013c0-1.727.838-2.774,2.247-2.774s2.247,1.047,2.247,2.774v.013C69.761-1.688,68.923-.635,67.514-.635ZM72.42,0h.838V-4.062A1.971,1.971,0,0,1,75.283-6.2c1.187,0,1.777.667,1.777,1.968V0H77.9V-4.443a2.231,2.231,0,0,0-2.393-2.507,2.192,2.192,0,0,0-2.165,1.314h-.083v-1.2H72.42ZM85.75.044a3.506,3.506,0,0,0,.584-.051V-.73a3.992,3.992,0,0,1-.489.025c-.774,0-1.073-.349-1.073-1.187v-4.24h1.562v-.7H84.773V-8.614H83.9v1.777h-1.1v.7h1.1V-1.7C83.9-.457,84.443.044,85.75.044ZM88.15,0h.838V-4.062A1.971,1.971,0,0,1,91.013-6.2c1.181,0,1.777.667,1.777,1.968V0h.838V-4.443a2.231,2.231,0,0,0-2.393-2.507A2.183,2.183,0,0,0,89.07-5.637h-.083V-9.56H88.15ZM98.471.114a2.717,2.717,0,0,0,2.774-1.752l.019-.051h-.844l-.025.044a1.974,1.974,0,0,1-1.9,1c-1.358,0-2.234-.958-2.26-2.558h5.135v-.355c0-2.025-1.13-3.4-2.964-3.4s-3.028,1.409-3.028,3.542V-3.4C95.374-1.25,96.554.114,98.471.114ZM98.4-6.2c1.174,0,2.019.8,2.114,2.317H96.237A2.2,2.2,0,0,1,98.4-6.2Z" transform="translate(-8091 -76)" fill="#fff"/>
      <path id="Path_9111" data-name="Path 9111" d="M55.188,143.9c-5.016-.029-9.166-10.269-9.166-15.484,0-8.519,6.391-10.384,8.853-10.384a10.188,10.188,0,0,1,3.34.822,7.466,7.466,0,0,0,1.907.547,5.935,5.935,0,0,0,1.368-.444,10.967,10.967,0,0,1,4.124-1h.01a8.454,8.454,0,0,1,7.074,3.573l.516.775-.743.56a6.248,6.248,0,0,0-3,5.152,5.815,5.815,0,0,0,3.245,5.376c.465.28.946.568.946,1.2,0,.412-3.286,9.254-8.059,9.254a6.481,6.481,0,0,1-2.721-.661,5.518,5.518,0,0,0-2.422-.583,6.231,6.231,0,0,0-1.918.519,9.4,9.4,0,0,1-3.327.776Z" transform="translate(-8179.022 -199.193)" fill="#fff"/>
      <path id="Path_9112" data-name="Path 9112" d="M261.486,0c.124,4.481-3.081,7.591-6.282,7.4C254.677,3.819,258.405,0,261.486,0Z" transform="translate(-8374.387 -89)" fill="#fff"/>
    </g>
  </g>
</svg>
