<svg xmlns="http://www.w3.org/2000/svg" width="190" height="50" viewBox="0 0 190 50">
  <g id="google_play" transform="translate(8373 97)">
    <rect id="Rectangle_3182" data-name="Rectangle 3182" width="190" height="50" rx="25" transform="translate(-8373 -97)"/>
    <g id="Group_5845" data-name="Group 5845" transform="translate(4 -1)">
      <g id="Group_5826" data-name="Group 5826" transform="translate(-9537.867 -5362.44)">
        <path id="Path_9119" data-name="Path 9119" d="M6.273.289c3.078,0,5-1.875,5-4.867v-1.43H6.539v1.719H8.977l-.008.211A2.433,2.433,0,0,1,6.313-1.711c-1.859,0-3.039-1.508-3.039-3.953V-5.68c0-2.4,1.125-3.883,2.945-3.883a2.5,2.5,0,0,1,2.6,1.781l.016.078H11.18l-.016-.078c-.336-2.25-2.281-3.781-4.945-3.781C2.938-11.562.867-9.273.867-5.656v.016C.867-1.969,2.922.289,6.273.289ZM17.125.18c2.648,0,4.242-1.672,4.242-4.477v-.016c0-2.781-1.617-4.477-4.242-4.477s-4.242,1.7-4.242,4.477V-4.3C12.883-1.5,14.477.18,17.125.18Zm0-1.789c-1.219,0-1.906-.992-1.906-2.687v-.016c0-1.68.7-2.687,1.906-2.687s1.906,1.008,1.906,2.688V-4.3C19.031-2.6,18.336-1.609,17.125-1.609ZM27.039.18c2.648,0,4.242-1.672,4.242-4.477v-.016c0-2.781-1.617-4.477-4.242-4.477S22.8-7.086,22.8-4.312V-4.3C22.8-1.5,24.391.18,27.039.18Zm0-1.789c-1.219,0-1.906-.992-1.906-2.687v-.016c0-1.68.7-2.687,1.906-2.687s1.906,1.008,1.906,2.688V-4.3C28.945-2.6,28.25-1.609,27.039-1.609ZM36.93,3.023c2.6,0,4.25-1.273,4.25-3.289V-8.6H38.9V-7.2h-.109a2.71,2.71,0,0,0-2.562-1.547c-2.2,0-3.539,1.7-3.539,4.234v.016c0,2.445,1.336,4.117,3.5,4.117a2.725,2.725,0,0,0,2.578-1.4h.141v1.6c0,1-.711,1.57-1.93,1.57-1.016,0-1.609-.344-1.734-.844L35.234.523H32.977V.563C33.164,2.023,34.547,3.023,36.93,3.023Zm.031-5.148c-1.234,0-1.937-.961-1.937-2.375v-.016c0-1.414.711-2.375,1.938-2.375s1.969.961,1.969,2.375V-4.5C38.93-3.086,38.2-2.125,36.961-2.125ZM43.539,0H45.82V-11.891H43.539Zm8.422.18c2.516,0,3.625-1.453,3.891-2.531l.016-.078H53.742l-.023.047a1.856,1.856,0,0,1-1.711.859c-1.211,0-1.969-.82-1.992-2.234h5.922v-.711c0-2.6-1.562-4.32-4.07-4.32S47.758-7.031,47.758-4.3v.008C47.758-1.531,49.344.18,51.961.18Zm-.055-7.258c.992,0,1.7.641,1.844,1.891H50.039A1.877,1.877,0,0,1,51.906-7.078ZM62.148,0h2.359V-3.555H66.8a3.687,3.687,0,0,0,3.961-3.852v-.016A3.687,3.687,0,0,0,66.8-11.273H62.148Zm4.07-9.406a1.887,1.887,0,0,1,2.148,1.992V-7.4a1.893,1.893,0,0,1-2.148,2H64.508V-9.406ZM72.781,0h2.281V-11.891H72.781Zm6.984.133a2.7,2.7,0,0,0,2.469-1.273h.141V0h2.25V-5.875c0-1.836-1.289-2.914-3.57-2.914-2.164,0-3.586,1-3.766,2.508l-.008.07h2.109l.016-.031c.18-.508.7-.8,1.523-.8.938,0,1.445.422,1.445,1.164v.711L80.3-5.039c-2.141.125-3.336,1.031-3.336,2.578v.016A2.563,2.563,0,0,0,79.766.133Zm-.578-2.719V-2.6c0-.625.477-.992,1.453-1.055l1.734-.109v.633a1.7,1.7,0,0,1-1.844,1.6C79.742-1.531,79.188-1.93,79.188-2.586Zm8.461,5.617c2.125,0,3.258-.766,4.023-3.039L94.6-8.6H92.2l-1.8,6.516h-.156L88.43-8.6H85.922L88.945,0l-.078.328a1.276,1.276,0,0,1-1.445.984c-.211,0-.437-.008-.594-.023V3.008C87.094,3.023,87.383,3.031,87.648,3.031Z" transform="translate(1226 5303)" fill="#fff"/>
        <path id="Path_9120" data-name="Path 9120" d="M1.174,0H4.189c2.8,0,4.348-1.733,4.348-4.577v-.013c0-2.837-1.555-4.57-4.348-4.57H1.174Zm.87-.787V-8.373H4.139c2.234,0,3.51,1.428,3.51,3.79v.013c0,2.361-1.27,3.783-3.51,3.783Zm11.134.9c1.911,0,3.11-1.352,3.11-3.529v-.013c0-2.177-1.2-3.523-3.11-3.523s-3.1,1.346-3.1,3.523v.013C10.074-1.238,11.267.114,13.178.114Zm0-.749c-1.409,0-2.247-1.054-2.247-2.78v-.013c0-1.727.838-2.774,2.247-2.774s2.247,1.047,2.247,2.774v.013C15.425-1.688,14.587-.635,13.178-.635ZM19.138,0h.876L21.7-5.675h.083L23.461,0h.882l1.949-6.836h-.838l-1.53,5.8h-.076l-1.688-5.8h-.832l-1.688,5.8h-.076l-1.517-5.8H17.2ZM27.79,0h.838V-4.062A1.971,1.971,0,0,1,30.653-6.2c1.187,0,1.777.667,1.777,1.968V0h.838V-4.443a2.231,2.231,0,0,0-2.393-2.507A2.192,2.192,0,0,0,28.71-5.637h-.083v-1.2H27.79Zm7.63,0h.838V-9.56H35.42Zm5.808.114c1.911,0,3.11-1.352,3.11-3.529v-.013c0-2.177-1.2-3.523-3.11-3.523s-3.1,1.346-3.1,3.523v.013C38.124-1.238,39.317.114,41.228.114Zm0-.749c-1.409,0-2.247-1.054-2.247-2.78v-.013c0-1.727.838-2.774,2.247-2.774s2.247,1.047,2.247,2.774v.013C43.475-1.688,42.637-.635,41.228-.635ZM48.02.114a2.393,2.393,0,0,0,2.234-1.289h.076V0h.844V-4.672c0-1.441-.933-2.279-2.533-2.279a2.393,2.393,0,0,0-2.628,1.79l-.006.025h.844l.006-.013c.178-.679.832-1.054,1.758-1.054,1.1,0,1.714.533,1.714,1.536v.641l-2.133.14c-1.581.108-2.463.8-2.463,1.987v.013A2.053,2.053,0,0,0,48.02.114ZM46.592-1.9v-.013c0-.774.559-1.212,1.72-1.289l2.019-.14v.793A2.01,2.01,0,0,1,48.179-.622C47.258-.622,46.592-1.117,46.592-1.9ZM55.821.114a2.418,2.418,0,0,0,2.3-1.479H58.2V0h.844V-9.56H58.2V-5.5h-.076a2.449,2.449,0,0,0-2.3-1.447c-1.733,0-2.888,1.409-2.888,3.529v.013C52.933-1.3,54.095.114,55.821.114ZM56-.635c-1.352,0-2.209-1.085-2.209-2.78v-.013C53.79-5.116,54.647-6.2,56-6.2s2.215,1.092,2.215,2.774v.013C58.214-1.727,57.345-.635,56-.635ZM67.514.114c1.911,0,3.11-1.352,3.11-3.529v-.013c0-2.177-1.2-3.523-3.11-3.523s-3.1,1.346-3.1,3.523v.013C64.41-1.238,65.6.114,67.514.114Zm0-.749c-1.409,0-2.247-1.054-2.247-2.78v-.013c0-1.727.838-2.774,2.247-2.774s2.247,1.047,2.247,2.774v.013C69.761-1.688,68.923-.635,67.514-.635ZM72.42,0h.838V-4.062A1.971,1.971,0,0,1,75.283-6.2c1.187,0,1.777.667,1.777,1.968V0H77.9V-4.443a2.231,2.231,0,0,0-2.393-2.507,2.192,2.192,0,0,0-2.165,1.314h-.083v-1.2H72.42ZM85.75.044a3.506,3.506,0,0,0,.584-.051V-.73a3.992,3.992,0,0,1-.489.025c-.774,0-1.073-.349-1.073-1.187v-4.24h1.562v-.7H84.773V-8.614H83.9v1.777h-1.1v.7h1.1V-1.7C83.9-.457,84.443.044,85.75.044ZM88.15,0h.838V-4.062A1.971,1.971,0,0,1,91.013-6.2c1.181,0,1.777.667,1.777,1.968V0h.838V-4.443a2.231,2.231,0,0,0-2.393-2.507A2.183,2.183,0,0,0,89.07-5.637h-.083V-9.56H88.15ZM98.471.114a2.717,2.717,0,0,0,2.774-1.752l.019-.051h-.844l-.025.044a1.974,1.974,0,0,1-1.9,1c-1.358,0-2.234-.958-2.26-2.558h5.135v-.355c0-2.025-1.13-3.4-2.964-3.4s-3.028,1.409-3.028,3.542V-3.4C95.374-1.25,96.554.114,98.471.114ZM98.4-6.2c1.174,0,2.019.8,2.114,2.317H96.237A2.2,2.2,0,0,1,98.4-6.2Z" transform="translate(1226 5286)" fill="#fff"/>
      </g>
      <g id="google-play" transform="translate(-8369.043 -86)">
        <path id="Path_9113" data-name="Path 9113" d="M31.147,30.947,17.079,45.015a3.335,3.335,0,0,1-1.036-2.454V20.5a3.38,3.38,0,0,1,1.072-2.49Z" transform="translate(0 -16.984)" fill="#0df"/>
        <path id="Path_9114" data-name="Path 9114" d="M294.123,159.2a3.449,3.449,0,0,1-1.836,3.035l-4,2.217-4.962-4.58-1.363-1.254,5.253-5.253,5.071,2.8A3.449,3.449,0,0,1,294.123,159.2Z" transform="translate(-251.08 -144.655)" fill="#ffdb00"/>
        <path id="Path_9115" data-name="Path 9115" d="M48.955,13.963,34.923,1.022a3.619,3.619,0,0,1,.654-.491A3.659,3.659,0,0,1,39.285.477L54.207,8.711Z" transform="translate(-17.808 0)" fill="#00f076"/>
        <path id="Path_9116" data-name="Path 9116" d="M54.676,251.68,38.682,260.5a3.62,3.62,0,0,1-1.818.473,3.541,3.541,0,0,1-1.89-.527,3.305,3.305,0,0,1-.691-.527l14.068-14.068,1.363,1.254Z" transform="translate(-17.204 -231.883)" fill="#f83546"/>
      </g>
    </g>
  </g>
</svg>
